# xmcd
#
# Track frame offsets: 
#        150
#        12448
#        25918
#        44441
#        58655
#        72915
#        84602
#        98405
#        112300
#        125044
#        136069
#        151118
#        170477
#        188219
#        218260
#        246982
#
# Disc length: 3587 seconds
#
# Revision: 1
# Processed by: cddbd v1.5.2PL0 Copyright (c) Steve Scherf et al.
# Submitted via: ExactAudioCopyFreeDBPlugin 1.0
#
DISCID=d90e0110
DTITLE=Various Artist - The Best Blues Album in the World... Ever!  V
DTITLE=olume 2 [CD2]
DYEAR=2005
DGENRE=Blues
TTITLE0=Sonny Terry - Whoopin' The Blues
TTITLE1=Robert Johnson - Sweet Home Chicago
TTITLE2=Mississippi Fred McDowell - Red Cross Store
TTITLE3=John Lee Hooker - Boogie Chillen
TTITLE4=Rosco Gordon - No More Doggin'
TTITLE5=Etta James - I'd Rather Go Blind
TTITLE6=Muddy Waters - I'm Ready
TTITLE7=Howlin' Wolf - Riding In The Moonlight
TTITLE8=B.B. King - Everyday (I Have The Blues)
TTITLE9=Freddie King - Look On Yonder Wall
TTITLE10=Buddy Guy - My Time After Awhile
TTITLE11=Willie Dixon - The Seventh Son
TTITLE12=Luther Allison - Drowning At The Bottom
TTITLE13=McKenna Mendelson Mainline - Mainline
TTITLE14=Johnny Winter - Tribute To Muddy
TTITLE15=Cassandra Wilson - Come On In My Kitchen
EXTD=YEAR: 2005
EXTT0=
EXTT1=
EXTT2=
EXTT3=
EXTT4=
EXTT5=
EXTT6=
EXTT7=
EXTT8=
EXTT9=
EXTT10=
EXTT11=
EXTT12=
EXTT13=
EXTT14=
EXTT15=
PLAYORDER=
